<svg xmlns="http://www.w3.org/2000/svg" viewBox="0 0 55 55"><defs><style>.cls-1{fill:#e6332a;opacity:0;}.cls-2{fill:#39b275;}.cls-3{fill:#1d1d1b;}</style></defs><g id="Layer_2" data-name="Layer 2"><g id="Layer_1-2" data-name="Layer 1"><rect class="cls-1" width="55" height="55"/><circle class="cls-2" cx="27.5" cy="39.5" r="4.81"/><path class="cls-3" d="M27.5,28.4a9.23,9.23,0,1,1,9.23-9.23A9.24,9.24,0,0,1,27.5,28.4Zm0-16.95a7.73,7.73,0,1,0,7.73,7.72A7.73,7.73,0,0,0,27.5,11.45Z"/><path class="cls-3" d="M41.13,45.05a.74.74,0,0,1-.75-.75V36.91a5.08,5.08,0,0,0-5.07-5.07H19.69a5.08,5.08,0,0,0-5.07,5.07V44.3a.75.75,0,0,1-1.5,0V36.91a6.58,6.58,0,0,1,6.57-6.57H35.31a6.58,6.58,0,0,1,6.57,6.57V44.3A.75.75,0,0,1,41.13,45.05Z"/></g></g></svg>