<svg xmlns="http://www.w3.org/2000/svg" viewBox="0 0 55 55"><defs><style>.cls-1{fill:#e6332a;opacity:0;}.cls-2{fill:#1d1d1b;}.cls-3{fill:#39b275;}</style></defs><g id="Layer_2" data-name="Layer 2"><g id="Layer_1-2" data-name="Layer 1"><rect class="cls-1" width="55" height="55"/><path class="cls-2" d="M37.33,18.52H34v-5a6.47,6.47,0,1,0-12.94,0v5H17.67a4.89,4.89,0,0,0-4.88,4.89V43.06A4.9,4.9,0,0,0,17.67,48H37.33a4.9,4.9,0,0,0,4.88-4.89V23.41A4.89,4.89,0,0,0,37.33,18.52Zm-9.83-10a5,5,0,0,1,5,5v5H22.53v-5A5,5,0,0,1,27.5,8.55ZM40.71,43.06a3.39,3.39,0,0,1-3.38,3.39H17.67a3.39,3.39,0,0,1-3.38-3.39V23.41A3.39,3.39,0,0,1,17.67,20H37.33a3.39,3.39,0,0,1,3.38,3.39Z"/><path class="cls-3" d="M27.5,26.86A2.92,2.92,0,0,0,25.66,32v5.3a.75.75,0,0,0,.75.75h2.18a.75.75,0,0,0,.75-.75V32a2.92,2.92,0,0,0-1.84-5.18Z"/></g></g></svg>