<svg xmlns="http://www.w3.org/2000/svg" viewBox="0 0 55 55"><defs><style>.cls-1{fill:#e6332a;opacity:0;}.cls-2{fill:#1d1d1b;}</style></defs><g id="Layer_2" data-name="Layer 2"><g id="Layer_1-2" data-name="Layer 1"><rect class="cls-1" width="55" height="55"/><path class="cls-2" d="M27.5,44.69A17.19,17.19,0,1,1,44.69,27.5,17.21,17.21,0,0,1,27.5,44.69Zm0-32.88A15.69,15.69,0,1,0,43.19,27.5,15.71,15.71,0,0,0,27.5,11.81Z"/><path class="cls-2" d="M28.56,27.5,33.09,23A.76.76,0,1,0,32,21.91L27.5,26.44,23,21.91A.75.75,0,0,0,21.92,23l4.52,4.52L21.92,32a.74.74,0,0,0,0,1.06.75.75,0,0,0,.53.22.79.79,0,0,0,.53-.22l4.52-4.53L32,33.09a.76.76,0,0,0,1.07,0,.75.75,0,0,0,0-1.06Z"/></g></g></svg>