<svg xmlns="http://www.w3.org/2000/svg" viewBox="0 0 55 55"><defs><style>.cls-1{fill:#e6332a;opacity:0;}.cls-2{fill:#1d1d1b;}</style></defs><g id="Layer_2" data-name="Layer 2"><g id="Layer_1-2" data-name="Layer 1"><rect class="cls-1" width="55" height="55"/><path class="cls-2" d="M27.5,10.31A17.19,17.19,0,1,0,44.69,27.5,17.21,17.21,0,0,0,27.5,10.31Zm5.76,21.54a1,1,0,0,1,0,1.41,1,1,0,0,1-1.41,0L27.5,28.91l-4.35,4.35a1,1,0,0,1-1.41,0,1,1,0,0,1,0-1.41l4.35-4.35-4.35-4.35a1,1,0,0,1,1.41-1.41l4.35,4.35,4.35-4.35a1,1,0,0,1,1.41,1.41L28.91,27.5Z"/></g></g></svg>